# Blender v2.73 (sub 0) OBJ File: 'testCube.blend'
# www.blender.org
o Cube
v 1.000000 -0.001981 -1.000000
v 1.000000 -0.001981 1.000000
v -1.000000 -0.001981 1.000000
v -1.000000 -0.001981 -1.000000
v 1.012483 1.998019 -0.995244
v 1.012482 1.998019 1.004756
v -0.987518 1.998019 1.004755
v -0.987517 1.998019 -0.995245
vt 0.484375 0.798828
vt 0.484375 0.681641
vt 0.365234 0.681641
vt 0.368300 0.418686
vt 0.486917 0.418686
vt 0.486917 0.537303
vt 0.366083 0.669602
vt 0.366083 0.548667
vt 0.483760 0.548667
vt 0.231365 0.679737
vt 0.348010 0.679737
vt 0.348010 0.795611
vt 0.477810 0.925909
vt 0.364622 0.925909
vt 0.364622 0.817286
vt 0.622666 0.679681
vt 0.622666 0.798770
vt 0.504667 0.798770
vt 0.365234 0.798828
vt 0.368300 0.537303
vt 0.483760 0.669602
vt 0.231365 0.795611
vt 0.477810 0.817286
vt 0.504667 0.679681
vn 0.000000 -1.000000 0.000000
vn 0.000000 1.000000 -0.000000
vn 1.000000 -0.006200 0.000000
vn -0.000000 -0.002400 1.000000
vn -1.000000 0.006200 -0.000000
vn 0.000000 0.002400 -1.000000
s off
f 2/1/1 3/2/1 4/3/1
f 8/4/2 7/5/2 6/6/2
f 5/7/3 6/8/3 2/9/3
f 2/10/4 6/11/4 7/12/4
f 3/13/5 7/14/5 8/15/5
f 1/16/6 4/17/6 8/18/6
f 1/19/1 2/1/1 4/3/1
f 5/20/2 8/4/2 6/6/2
f 1/21/3 5/7/3 2/9/3
f 3/22/4 2/10/4 7/12/4
f 4/23/5 3/13/5 8/15/5
f 5/24/6 1/16/6 8/18/6
