# Blender v2.73 (sub 0) OBJ File: 'woodCube.blend'
# www.blender.org
o Cube
v 1.000000 -0.041278 -1.000000
v 1.000000 -0.041278 1.000000
v -1.000000 -0.041278 1.000000
v -1.000000 -0.041278 -1.000000
v 1.000000 1.958722 -0.999999
v 0.999999 1.958722 1.000001
v -1.000000 1.958722 1.000000
v -1.000000 1.958722 -1.000000
v 1.000000 -0.041278 -1.000000
v 1.000000 -0.041278 -1.000000
v 1.000000 -0.041278 1.000000
v 1.000000 -0.041278 1.000000
v -1.000000 -0.041278 -1.000000
v -1.000000 -0.041278 -1.000000
v 1.000000 1.958722 -0.999999
v 1.000000 1.958722 -0.999999
v -1.000000 -0.041278 1.000000
v -1.000000 -0.041278 1.000000
v 0.999999 1.958722 1.000001
v 0.999999 1.958722 1.000001
v -1.000000 1.958722 1.000000
v -1.000000 1.958722 1.000000
v -1.000000 1.958722 -1.000000
v -1.000000 1.958722 -1.000000
vt -0.003906 1.000000
vt -0.003906 0.000000
vt 1.000000 0.000000
vt 0.002631 0.996016
vt 0.002631 -0.000880
vt 0.999527 -0.000880
vt 0.998248 0.994427
vt -0.001752 0.994427
vt -0.001752 0.000207
vt 1.009142 0.994100
vt 0.002791 0.994101
vt 0.002791 -0.012251
vt -0.002143 1.000509
vt -0.002143 -0.003517
vt 1.001883 -0.003517
vt 0.987853 0.983099
vt 0.008402 0.983099
vt 0.008401 0.003648
vt 1.000000 1.000000
vt 0.999527 0.996016
vt 0.998248 0.000207
vt 1.009143 -0.012251
vt 1.001883 1.000509
vt 0.987853 0.003648
vn 0.000000 -1.000000 0.000000
vn 0.000000 1.000000 -0.000000
vn 1.000000 0.000000 0.000000
vn -0.000000 -0.000000 1.000000
vn -1.000000 -0.000000 -0.000000
vn 0.000000 0.000000 -1.000000
s 1
f 2/1/1 3/2/1 4/3/1
f 23/4/2 21/5/2 19/6/2
f 5/7/3 6/8/3 11/9/3
f 20/10/4 7/11/4 17/12/4
f 18/13/5 22/14/5 8/15/5
f 10/16/6 14/17/6 24/18/6
f 1/19/1 2/1/1 4/3/1
f 15/20/2 23/4/2 19/6/2
f 9/21/3 5/7/3 11/9/3
f 12/22/4 20/10/4 17/12/4
f 13/23/5 18/13/5 8/15/5
f 16/24/6 10/16/6 24/18/6
